<svg width="110" height="110" viewBox="0 0 110 110" fill="none" xmlns="http://www.w3.org/2000/svg">
<rect width="110" height="110" fill="#172DD7" style="fill:#172DD7;fill:color(display-p3 0.0902 0.1765 0.8431);fill-opacity:1;"/>
<path d="M39.2057 86.5C37.7151 86.5 36.5122 85.9455 35.7278 84.8972C34.9216 83.8202 34.7114 82.3164 35.1509 80.7728L36.9156 74.5718C37.0564 74.078 36.9584 73.5467 36.6515 73.136C36.3446 72.7261 35.8644 72.4848 35.3543 72.4848H30.2802C28.7888 72.4848 27.5859 71.9311 26.802 70.8828C25.9957 69.805 25.7855 68.3013 26.2253 66.7576L32.288 45.5515L32.9574 43.2216C33.8572 40.0599 37.1387 37.4904 40.2736 37.4904H46.3451C47.0696 37.4904 47.7069 37.007 47.9064 36.3055L49.9142 29.252C50.8131 26.0935 54.0948 23.524 57.2296 23.524L70.2144 23.5008L79.7201 23.5C81.2111 23.5 82.414 24.0537 83.1979 25.102C84.0042 26.179 84.2144 27.6827 83.7749 29.2264L81.0568 38.7768C80.1582 41.9345 76.8766 44.5032 73.7418 44.5032L60.7281 44.528H54.6587C53.935 44.528 53.2985 45.0105 53.0978 45.7113L48.0372 63.3994C47.8956 63.894 47.9935 64.427 48.3013 64.8376C48.6082 65.2475 49.0884 65.4888 49.5981 65.4888C49.5993 65.4888 58.1976 65.472 58.1976 65.472H67.6751C69.1662 65.472 70.369 66.0258 71.153 67.074C71.9592 68.1519 72.1694 69.6556 71.7296 71.1992L69.0116 80.748C68.113 83.9065 64.8313 86.4752 61.6965 86.4752L48.6832 86.5H39.2057Z" fill="#F0FF41" style="fill:#F0FF41;fill:color(display-p3 0.9412 1.0000 0.2549);fill-opacity:1;"/>
</svg>
